HIERARCHY
ROOT Hips
{
  OFFSET 5.84602e-005 68.8428 3.50346
  CHANNELS 6 Xposition Yposition Zposition Zrotation Xrotation Yrotation
  JOINT Spine
  {
    OFFSET 0 8.597 -4.6522
    CHANNELS 3 Zrotation Xrotation Yrotation
    JOINT Spine1
    {
      OFFSET 0 7.8454 0.4098
      CHANNELS 3 Zrotation Xrotation Yrotation
      JOINT Spine2
      {
        OFFSET 0 9.7078 -2.1609
        CHANNELS 3 Zrotation Xrotation Yrotation
        JOINT Neck
        {
          OFFSET 0 21.8761 -0.4549
          CHANNELS 3 Zrotation Xrotation Yrotation
          JOINT Head
          {
            OFFSET 0 12.3537 3.3602
            CHANNELS 3 Zrotation Xrotation Yrotation
            End Site
            {
              OFFSET 0.0001 18.9506 0.5657
            }
          }
        }
        JOINT LeftShoulder
        {
          OFFSET 2.2086 21.1115 7.2329
          CHANNELS 3 Zrotation Xrotation Yrotation
          JOINT LeftArm
          {
            OFFSET 13.1193 3.0282 -4.8998
            CHANNELS 3 Zrotation Xrotation Yrotation
            JOINT LeftForeArm
            {
              OFFSET 27.4081 -0.0973053 -0.2375
              CHANNELS 3 Zrotation Xrotation Yrotation
              JOINT LeftHand
              {
                OFFSET 22.8641 0.0662994 -0.1369
                CHANNELS 3 Zrotation Xrotation Yrotation
                JOINT LeftHandIndex1
                {
                  OFFSET 8.8614 0.775009 2.4612
                  CHANNELS 3 Zrotation Xrotation Yrotation
                  JOINT LeftHandIndex2
                  {
                    OFFSET 3.3146 -0.808304 0.5841
                    CHANNELS 3 Zrotation Xrotation Yrotation
                    JOINT LeftHandIndex3
                    {
                      OFFSET 2.2628 -0.552002 0.3989
                      CHANNELS 3 Zrotation Xrotation Yrotation
                      End Site
                      {
                        OFFSET 1.6102 -0.4807 0.2612
                      }
                    }
                  }
                }
                JOINT LeftHandMiddle1
                {
                  OFFSET 8.9937 0.895004 0.2143
                  CHANNELS 3 Zrotation Xrotation Yrotation
                  JOINT LeftHandMiddle2
                  {
                    OFFSET 4.0984 0.0113983 -0.0242
                    CHANNELS 3 Zrotation Xrotation Yrotation
                    JOINT LeftHandMiddle3
                    {
                      OFFSET 2.2716 0.00689697 -0.0138001
                      CHANNELS 3 Zrotation Xrotation Yrotation
                      End Site
                      {
                        OFFSET 2.0404 -0.1441 0.0027
                      }
                    }
                  }
                }
                JOINT LeftHandRing1
                {
                  OFFSET 8.5234 0.597198 -2.0164
                  CHANNELS 3 Zrotation Xrotation Yrotation
                  JOINT LeftHandRing2
                  {
                    OFFSET 3.7188 -0.188293 -0.2328
                    CHANNELS 3 Zrotation Xrotation Yrotation
                    JOINT LeftHandRing3
                    {
                      OFFSET 2.1191 -0.106598 -0.1332
                      CHANNELS 3 Zrotation Xrotation Yrotation
                      End Site
                      {
                        OFFSET 1.8737 -0.2304 -0.0886
                      }
                    }
                  }
                }
                JOINT LeftHandPinky1
                {
                  OFFSET 7.9094 -0.601089 -3.4825
                  CHANNELS 3 Zrotation Xrotation Yrotation
                  JOINT LeftHandPinky2
                  {
                    OFFSET 2.2874 -0.477005 -0.6314
                    CHANNELS 3 Zrotation Xrotation Yrotation
                    JOINT LeftHandPinky3
                    {
                      OFFSET 1.6774 -0.349396 -0.4633
                      CHANNELS 3 Zrotation Xrotation Yrotation
                      End Site
                      {
                        OFFSET 1.4888 -0.4091 -0.3416
                      }
                    }
                  }
                }
                JOINT LeftHandThumb1
                {
                  OFFSET 1.833 -1.3875 1.3896
                  CHANNELS 3 Zrotation Xrotation Yrotation
                  JOINT LeftHandThumb2
                  {
                    OFFSET 3.4129 -1.121 2.5732
                    CHANNELS 3 Zrotation Xrotation Yrotation
                    JOINT LeftHandThumb3
                    {
                      OFFSET 2.2474 -0.804199 1.6192
                      CHANNELS 3 Zrotation Xrotation Yrotation
                      End Site
                      {
                        OFFSET 1.6527 -0.5689 1.1317
                      }
                    }
                  }
                }
              }
            }
          }
        }
        JOINT RightShoulder
        {
          OFFSET -2.2086 21.1115 7.2329
          CHANNELS 3 Zrotation Xrotation Yrotation
          JOINT RightArm
          {
            OFFSET -13.1216 3.0287 -4.9007
            CHANNELS 3 Zrotation Xrotation Yrotation
            JOINT RightForeArm
            {
              OFFSET -27.4081 -0.0973053 -0.2375
              CHANNELS 3 Zrotation Xrotation Yrotation
              JOINT RightHand
              {
                OFFSET -22.8641 0.0664063 -0.1369
                CHANNELS 3 Zrotation Xrotation Yrotation
                JOINT RightHandIndex1
                {
                  OFFSET -8.8614 0.774994 2.4612
                  CHANNELS 3 Zrotation Xrotation Yrotation
                  JOINT RightHandIndex2
                  {
                    OFFSET -3.3146 -0.808304 0.5841
                    CHANNELS 3 Zrotation Xrotation Yrotation
                    JOINT RightHandIndex3
                    {
                      OFFSET -2.2628 -0.552002 0.3989
                      CHANNELS 3 Zrotation Xrotation Yrotation
                      End Site
                      {
                        OFFSET -1.6102 -0.4807 0.2612
                      }
                    }
                  }
                }
                JOINT RightHandMiddle1
                {
                  OFFSET -8.9937 0.894989 0.2143
                  CHANNELS 3 Zrotation Xrotation Yrotation
                  JOINT RightHandMiddle2
                  {
                    OFFSET -4.0984 0.0113983 -0.0242
                    CHANNELS 3 Zrotation Xrotation Yrotation
                    JOINT RightHandMiddle3
                    {
                      OFFSET -2.2716 0.00691223 -0.0138001
                      CHANNELS 3 Zrotation Xrotation Yrotation
                      End Site
                      {
                        OFFSET -2.0404 -0.1441 0.0027
                      }
                    }
                  }
                }
                JOINT RightHandRing1
                {
                  OFFSET -8.5234 0.597198 -2.0164
                  CHANNELS 3 Zrotation Xrotation Yrotation
                  JOINT RightHandRing2
                  {
                    OFFSET -3.7188 -0.188309 -0.2328
                    CHANNELS 3 Zrotation Xrotation Yrotation
                    JOINT RightHandRing3
                    {
                      OFFSET -2.1191 -0.106598 -0.1332
                      CHANNELS 3 Zrotation Xrotation Yrotation
                      End Site
                      {
                        OFFSET -1.8737 -0.2304 -0.0886
                      }
                    }
                  }
                }
                JOINT RightHandPinky1
                {
                  OFFSET -7.9094 -0.601105 -3.4825
                  CHANNELS 3 Zrotation Xrotation Yrotation
                  JOINT RightHandPinky2
                  {
                    OFFSET -2.2874 -0.477005 -0.6314
                    CHANNELS 3 Zrotation Xrotation Yrotation
                    JOINT RightHandPinky3
                    {
                      OFFSET -1.6774 -0.349396 -0.4633
                      CHANNELS 3 Zrotation Xrotation Yrotation
                      End Site
                      {
                        OFFSET -1.4888 -0.4091 -0.3416
                      }
                    }
                  }
                }
                JOINT RightHandThumb1
                {
                  OFFSET -1.833 -1.38751 1.3896
                  CHANNELS 3 Zrotation Xrotation Yrotation
                  JOINT RightHandThumb2
                  {
                    OFFSET -3.41299 -1.12099 2.5732
                    CHANNELS 3 Zrotation Xrotation Yrotation
                    JOINT RightHandThumb3
                    {
                      OFFSET -2.24741 -0.804108 1.6192
                      CHANNELS 3 Zrotation Xrotation Yrotation
                      End Site
                      {
                        OFFSET -1.6527 -0.5689 1.1317
                      }
                    }
                  }
                }
              }
            }
          }
        }
      }
    }
  }
  JOINT RightUpLeg
  {
    OFFSET -9.1966 3.8861 -0.7581
    CHANNELS 3 Zrotation Xrotation Yrotation
    JOINT RightLeg
    {
      OFFSET -0.7359 -41.0265 0
      CHANNELS 3 Zrotation Xrotation Yrotation
      JOINT RightFoot
      {
        OFFSET 0 -40.2855 0
        CHANNELS 3 Zrotation Xrotation Yrotation
        JOINT RightToeBase
        {
          OFFSET 0 -5.6122 11.7359
          CHANNELS 3 Zrotation Xrotation Yrotation
          End Site
          {
            OFFSET 0 0 7.8731
          }
        }
      }
    }
  }
  JOINT LeftUpLeg
  {
    OFFSET 9.1965 3.8864 -0.7581
    CHANNELS 3 Zrotation Xrotation Yrotation
    JOINT LeftLeg
    {
      OFFSET 0.7359 -41.0268 0
      CHANNELS 3 Zrotation Xrotation Yrotation
      JOINT LeftFoot
      {
        OFFSET 0 -40.2855 0
        CHANNELS 3 Zrotation Xrotation Yrotation
        JOINT LeftToeBase
        {
          OFFSET 0 -5.6122 11.7359
          CHANNELS 3 Zrotation Xrotation Yrotation
          End Site
          {
            OFFSET 0 0 7.8731
          }
        }
      }
    }
  }
}
MOTION
Frames:	7
Frame Time:	0.0333333
5.84602e-005 68.8428 3.50346 0 0 -0 0 0 -0 0 0 -0 0 0 -0 0 0 -0 0 0 -0 0 0 -0 0 0 -0 0 0 -0 0 0 -0 0 0 -0 0 0 -0 0 0 -0 0 0 -0 -0.0146107 -8.87603e-005 -2.63497e-007 2.99804e-018 -2.42657e-020 -1.42182e-022 0 0 -0 -0.0187562 -0.001176 5.858e-005 5.06224e-018 3.88251e-019 1.21329e-020 0 0 -0 -0.012269 -0.00324817 0.000675346 -1.74678e-018 3.88251e-019 -0 0 0 -0 0 0 -0 0 0 -0 0 0 -0 0 0 -0 0 0 -0 0 0 -0 0 0 -0 0 0 -0 0 0 -0 0 0 -0 0.0149955 -9.10982e-005 2.64101e-007 -9.69331e-018 1.21329e-020 -4.7394e-023 0 0 -0 0.0189956 -0.00119102 -5.96516e-005 -5.41541e-019 0 2.42657e-020 0 0 -0 0.0122698 -0.00324857 -0.000673756 -2.00796e-019 0 -1.94126e-019 0 0 -0 0 0 -0 0 0 -0 3.39842 1.33031 -0.0637918 -5.65207e-008 0.834868 -0.000436188 -3.39935 -2.16518 -0.0642563 -8.89002e-024 -1.18485e-023 -1.48106e-024 -3.39844 1.35642 0.0640283 -3.18788e-007 0.782166 -0.000588827 3.39931 -2.13858 0.0634662 1.1399e-023 0 -0 
1.62979 8.96657 13.1595 0 23.9991 -0 0.068239 17.3868 -0.539136 0.34365 34.7724 -1.19032 0.34365 34.7724 -1.19032 5.02237e-006 -48.0029 3.30564e-006 1.48843e-007 -24.0027 4.15093e-008 37.796 -4.15576 -17.4897 -52.9815 -21.6309 -82.5991 -40.764 -24.6485 -78.7384 -51.0028 -2.85067e-006 -2.79363e-006 -8.58762e-008 -4.79654e-008 2.7651e-007 7.80691e-009 4.3605e-009 -2.51373e-008 -5.8552e-008 -3.27037e-008 1.8853e-007 -8.58762e-008 -4.79654e-008 2.7651e-007 -0.0146275 -9.10542e-005 9.67916e-008 -5.85519e-008 -3.27278e-008 1.88525e-007 -8.58762e-008 -4.79654e-008 2.7651e-007 -0.0187421 -0.00117459 5.7739e-005 -5.85501e-008 -3.27345e-008 1.88525e-007 -8.58762e-008 -4.79654e-008 2.7651e-007 -0.0122769 -0.00324983 0.00067862 5.67428e-007 -8.11343e-007 2.47184e-007 -8.58762e-008 -4.79654e-008 2.7651e-007 7.80691e-009 4.3605e-009 -2.51373e-008 -5.8552e-008 -3.27037e-008 1.8853e-007 -18.3727 -2.31548 8.20995 -8.85535 -18.6223 74.412 46.9437 -35.0198 62.1274 41.2882 9.3685 51.9978 -9.19792e-007 -1.0223e-007 3.68914e-007 -4.91132e-007 -1.49037e-006 9.88331e-008 -1.08859e-007 7.45754e-008 4.05414e-007 -9.19792e-007 -1.0223e-007 3.68914e-007 0.0149955 -9.31668e-005 1.55081e-006 -9.21651e-007 -1.0217e-007 3.68928e-007 -9.19792e-007 -1.0223e-007 3.68914e-007 0.0190045 -0.00118706 -5.88362e-005 -9.22144e-007 -1.02022e-007 3.68947e-007 -9.19792e-007 -1.0223e-007 3.68914e-007 0.0122719 -0.00324353 -0.000677038 -9.21303e-007 -1.01794e-007 3.69035e-007 -9.19792e-007 -1.0223e-007 3.68914e-007 -4.91132e-007 -1.49037e-006 9.88331e-008 -1.08859e-007 7.45754e-008 4.05414e-007 -65.0545 -6.21169 -27.4091 -118.72 88.219 117.165 -3.39874 -3.39253 -1.4898 2.98177e-016 5.96354e-016 2.24254e-015 65.0378 -6.21682 27.405 118.743 88.2187 -117.193 3.39902 -3.39329 1.48984 5.99254e-007 5.37192e-006 4.73078e-006 
1.6298 9.05696 13.5441 0 23.7213 -0 0.0821289 17.4875 -0.55195 0.380129 34.9731 -1.22453 0.380129 34.9731 -1.22453 -5.23707e-006 -48.0029 -3.08478e-007 0.24426 -24.2014 0.133013 38.7604 -2.19766 -17.3076 -52.7287 -22.4928 -83.2858 -40.7981 -24.489 -78.7523 -50.2119 1.09427 -0.991884 1.40725e-007 7.70951e-008 -4.50879e-007 1.89163e-006 1.54784e-007 -4.04374e-007 -1.59781e-007 -3.30473e-006 -3.95643e-008 1.40725e-007 7.70951e-008 -4.50879e-007 -0.0146124 -8.5176e-005 1.00485e-006 -1.59909e-007 -3.30472e-006 -3.99857e-008 1.40725e-007 7.70951e-008 -4.50879e-007 -0.0187427 -0.0011759 5.93236e-005 -1.59947e-007 -3.30473e-006 -4.01027e-008 1.40725e-007 7.70951e-008 -4.50879e-007 -0.0122201 -0.00323787 0.000672881 -1.59909e-007 -3.30475e-006 -3.99064e-008 1.40725e-007 7.70951e-008 -4.50879e-007 1.89163e-006 1.54784e-007 -4.04374e-007 -1.59781e-007 -3.30473e-006 -3.95643e-008 -18.3471 -2.11843 8.47767 -8.85534 -18.6223 74.412 46.9438 -35.0198 62.1275 41.2883 9.36849 51.9978 -1.98785e-016 9.54166e-015 -1.49089e-015 1.3418e-015 6.36111e-015 -9.93923e-016 -1.07206e-007 7.48892e-008 4.05739e-007 -1.98785e-016 9.54166e-015 -1.49089e-015 0.0149943 -9.09766e-005 1.18758e-006 -1.07209e-007 7.49423e-008 4.05729e-007 -1.98785e-016 9.54166e-015 -1.49089e-015 0.0189885 -0.00119264 -5.97842e-005 -1.07206e-007 7.49567e-008 4.05728e-007 -1.98785e-016 9.54166e-015 -1.49089e-015 0.0122642 -0.00324392 -0.000675384 -1.07197e-007 7.49327e-008 4.05734e-007 -1.98785e-016 9.54166e-015 -1.49089e-015 1.3418e-015 6.36111e-015 -9.93923e-016 -1.07206e-007 7.48892e-008 4.05739e-007 -64.6922 -5.68228 -27.0041 -98.2968 88.4743 96.7704 -3.35609 -3.25776 -1.64791 0 0 -4.67765e-015 64.655 -5.69337 26.9773 98.2847 88.4738 -96.7632 3.33768 -3.25859 1.67084 -1.98785e-016 -1.98785e-016 -1.15854e-015 
1.62982 9.14757 13.9287 0 23.4435 -0 0.0959345 17.5877 -0.564963 0.416662 35.1738 -1.25928 0.416663 35.1738 -1.25928 -4.43996e-006 -48.0029 -2.62947e-006 0.489549 -24.3996 0.267241 39.7236 -0.225024 -17.1577 -52.4852 -23.3587 -83.9739 -40.8322 -24.3293 -78.7661 -49.3989 2.17829 -2.00284 -4.7283e-008 -2.54601e-008 1.50806e-007 -1.06387e-007 -5.72851e-008 3.39314e-007 1.18208e-008 6.36501e-009 -3.77015e-008 -4.7283e-008 -2.54601e-008 1.50806e-007 -0.0146282 -9.15111e-005 -1.30603e-006 1.18207e-008 6.36982e-009 -3.77007e-008 -4.7283e-008 -2.54601e-008 1.50806e-007 -0.0187734 -0.0011845 5.81724e-005 1.18203e-008 6.37116e-009 -3.77006e-008 -4.7283e-008 -2.54601e-008 1.50806e-007 -0.0122738 -0.00324442 0.000675638 1.18197e-008 6.36897e-009 -3.77012e-008 -4.7283e-008 -2.54601e-008 1.50806e-007 -1.06387e-007 -5.72851e-008 3.39314e-007 1.18208e-008 6.36501e-009 -3.77015e-008 -18.3224 -1.92129 8.74528 -8.85534 -18.6223 74.412 46.9438 -35.0198 62.1275 41.2882 9.3685 51.9978 1.51867e-006 -1.9092e-008 8.28266e-007 1.62422e-006 -9.42909e-008 4.22212e-007 1.72977e-006 -1.6949e-007 1.6157e-008 1.51867e-006 -1.9092e-008 8.28266e-007 0.0150043 -8.95747e-005 4.68694e-007 1.72974e-006 -1.69487e-007 1.61778e-008 1.51867e-006 -1.9092e-008 8.28266e-007 0.01898 -0.00118805 -5.7758e-005 1.72973e-006 -1.69483e-007 1.61672e-008 1.51867e-006 -1.9092e-008 8.28266e-007 0.0122425 -0.00323911 -0.0006716 9.11732e-007 -2.47691e-009 -2.84566e-007 1.51867e-006 -1.9092e-008 8.28266e-007 1.62422e-006 -9.42909e-008 4.22212e-007 1.72977e-006 -1.6949e-007 1.6157e-008 -64.3334 -5.15025 -26.6028 -74.079 88.4846 72.5823 -3.3132 -3.12309 -1.80623 -3.19405e-032 7.95139e-016 2.30155e-015 64.2758 -5.16697 26.5536 74.0449 88.483 -72.5531 3.27606 -3.12411 1.85215 -7.12261e-008 1.53165e-007 1.3683e-006 
1.62983 9.23839 14.3133 0 23.1657 -0 0.109784 17.6885 -0.578065 0.453454 35.3745 -1.29441 0.453453 35.3745 -1.29441 -7.54213e-006 -48.0029 -6.14701e-006 0.735872 -24.5974 0.402688 40.6872 1.76034 -17.0405 -52.2512 -24.2285 -84.6633 -40.8661 -24.1697 -78.7798 -48.5635 3.25091 -3.03317 1.75879e-006 7.58864e-008 2.88733e-008 -2.97771e-006 -9.86284e-007 -3.26219e-008 1.83792e-006 1.1785e-007 -2.22449e-007 1.75879e-006 7.58864e-008 2.88733e-008 -0.0145883 -8.93583e-005 -6.01879e-007 2.90463e-006 9.48472e-007 2.5893e-007 1.75879e-006 7.58864e-008 2.88733e-008 -0.0187611 -0.00118005 5.88037e-005 2.9041e-006 9.48321e-007 2.58945e-007 1.75879e-006 7.58864e-008 2.88733e-008 -0.0122473 -0.00324564 0.000674421 1.83788e-006 1.17856e-007 -2.22487e-007 1.75879e-006 7.58864e-008 2.88733e-008 -2.97771e-006 -9.86284e-007 -3.26219e-008 1.83792e-006 1.1785e-007 -2.22449e-007 -18.2986 -1.72398 9.01282 -8.85533 -18.6223 74.412 46.9438 -35.0198 62.1275 41.2882 9.3685 51.9978 -1.72934e-006 1.74069e-007 -9.22691e-009 -3.57812e-015 -6.36111e-015 -3.97569e-015 -1.62544e-006 9.85625e-008 -4.15588e-007 -1.72934e-006 1.74069e-007 -9.22691e-009 0.0149783 -9.12538e-005 8.30203e-007 -1.62541e-006 9.8508e-008 -4.156e-007 -1.72934e-006 1.74069e-007 -9.22691e-009 0.0189715 -0.00119101 -6.05915e-005 -1.6254e-006 9.84897e-008 -4.15588e-007 -1.72934e-006 1.74069e-007 -9.22691e-009 0.0122774 -0.00325313 -0.000677093 -1.62542e-006 9.84998e-008 -4.15554e-007 -1.72934e-006 1.74069e-007 -9.22691e-009 -3.57812e-015 -6.36111e-015 -3.97569e-015 -1.62544e-006 9.85625e-008 -4.15588e-007 -63.978 -4.61553 -26.2055 -53.1737 88.2451 51.7061 -3.27005 -2.98866 -1.96491 4.00997e-006 2.69076e-006 4.7225e-008 63.9002 -4.63761 26.1339 53.1511 88.2422 -51.6885 3.21408 -2.9899 2.03379 2.0289e-006 -1.31566e-006 -1.98148e-006 
1.62984 9.32943 14.6979 0 22.8878 -0 0.123658 17.7889 -0.591267 0.490505 35.5752 -1.32992 0.490506 35.5752 -1.32992 -2.77491e-005 -48.0032 -1.60666e-005 0.983234 -24.7949 0.53936 41.6527 3.75644 -16.9562 -52.0269 -25.1016 -85.3545 -40.9 -24.01 -78.7934 -47.7057 4.31098 -4.08307 -2.38216e-008 -1.24714e-008 7.53892e-008 -7.94052e-008 -4.15712e-008 2.51297e-007 -3.97026e-008 -2.07856e-008 1.25649e-007 -2.38216e-008 -1.24714e-008 7.53892e-008 -0.0146274 -8.67935e-005 1.14956e-006 -3.97025e-008 -2.08017e-008 1.25646e-007 -2.38216e-008 -1.24714e-008 7.53892e-008 -0.018763 -0.00117666 5.85823e-005 -3.97013e-008 -2.08062e-008 1.25646e-007 -2.38216e-008 -1.24714e-008 7.53892e-008 -0.0122627 -0.00324456 0.000674806 -3.96991e-008 -2.07988e-008 1.25648e-007 -2.38216e-008 -1.24714e-008 7.53892e-008 -7.94052e-008 -4.15712e-008 2.51297e-007 -3.97026e-008 -2.07856e-008 1.25649e-007 -18.2757 -1.52656 9.28028 -8.85534 -18.6223 74.412 46.9438 -35.0198 62.1275 41.2882 9.36849 51.9978 -1.00791e-006 -8.50427e-008 -1.12128e-006 -1.62663e-006 1.02842e-007 -4.08965e-007 -1.21239e-006 6.65814e-008 -3.0796e-007 -1.00791e-006 -8.50427e-008 -1.12128e-006 0.0149924 -9.0411e-005 2.2156e-007 -1.2133e-006 6.65466e-008 -3.07968e-007 -1.00791e-006 -8.50427e-008 -1.12128e-006 0.0189868 -0.00119114 -6.17867e-005 -4.1304e-007 3.61688e-008 -1.01011e-007 -1.00791e-006 -8.50427e-008 -1.12128e-006 0.0122183 -0.00323802 -0.000675017 -4.1347e-007 3.60431e-008 -1.0104e-007 -1.00791e-006 -8.50427e-008 -1.12128e-006 -1.62663e-006 1.02842e-007 -4.08965e-007 -1.21239e-006 6.65814e-008 -3.0796e-007 -63.6259 -4.07829 -25.812 -38.6889 87.8371 37.2498 -3.22657 -2.85448 -2.12379 1.1741e-007 9.50718e-008 -5.38244e-006 63.5281 -4.10551 25.7181 38.689 87.8329 -37.2548 3.15172 -2.85604 2.2157 0 0 -1.07157e-015 
1.62986 9.42069 15.0824 0 22.6099 -0 0.137568 17.8893 -0.604562 0.527821 35.7758 -1.3658 0.527821 35.7758 -1.36579 -2.91045e-005 -48.0032 -1.75966e-005 1.23164 -24.9918 0.677262 42.6217 5.76132 -16.9053 -51.8126 -25.978 -86.0475 -40.9337 -23.8504 -78.8068 -46.8252 5.35733 -5.15279 -1.593e-008 -8.25074e-009 5.02542e-008 -1.21696e-006 -9.13257e-007 -1.47697e-007 -4.54899e-007 8.87536e-007 -1.61047e-007 -1.593e-008 -8.25074e-009 5.02542e-008 -0.0145808 -8.68187e-005 -6.89262e-007 4.77898e-008 2.47714e-008 -1.5076e-007 -1.593e-008 -8.25074e-009 5.02542e-008 -0.0187515 -0.00117614 5.89803e-005 4.77884e-008 2.47769e-008 -1.50759e-007 -1.593e-008 -8.25074e-009 5.02542e-008 -0.0122694 -0.00324711 0.000675386 4.77859e-008 2.47681e-008 -1.50761e-007 -1.593e-008 -8.25074e-009 5.02542e-008 -1.21696e-006 -9.13257e-007 -1.47697e-007 -4.54899e-007 8.87536e-007 -1.61047e-007 -18.2538 -1.32898 9.54767 -8.85531 -18.6223 74.412 46.9437 -35.0198 62.1275 41.2882 9.36849 51.9978 -6.75868e-015 -3.18055e-015 1.59028e-015 -7.7526e-015 -3.18055e-015 -1.59028e-015 -4.96962e-015 3.18055e-015 -7.95139e-016 -6.75868e-015 -3.18055e-015 1.59028e-015 0.0149829 -9.2153e-005 2.12725e-007 1.51076e-014 -3.18055e-015 3.97569e-015 -6.75868e-015 -3.18055e-015 1.59028e-015 0.0189951 -0.00119038 -6.09756e-005 -5.96354e-016 3.18055e-015 -2.98177e-015 -6.75868e-015 -3.18055e-015 1.59028e-015 0.0122643 -0.00324769 -0.000674967 -3.57812e-015 9.54166e-015 1.19271e-015 -6.75868e-015 -3.18055e-015 1.59028e-015 -7.7526e-015 -3.18055e-015 -1.59028e-015 -4.96962e-015 3.18055e-015 -7.95139e-016 -63.2772 -3.53877 -25.4222 -29.2004 87.337 27.7889 -3.18276 -2.72058 -2.28296 7.79115e-033 5.96354e-016 -7.48549e-016 63.1595 -3.57076 25.3063 29.2168 87.3317 -27.8103 3.08903 -2.72257 2.39797 9.93923e-017 -1.21259e-014 4.55341e-015 
